<mxfile host="app.diagrams.net" modified="2023-10-10T08:34:04.117Z" agent="Mozilla/5.0 (Macintosh; Intel Mac OS X 10_15_7) AppleWebKit/537.36 (KHTML, like Gecko) Chrome/117.0.0.0 Safari/537.36" version="22.0.4" etag="liU7WljSDmpTUqkbEB5_" type="github">
  <diagram name="第 1 页" id="UhNYTqTeNJZpPvo2uqMk">
    <mxGraphModel>
      <root>
        <mxCell id="0" />
        <mxCell id="1" parent="0" />
      </root>
    </mxGraphModel>
  </diagram>
</mxfile>
